<?xml version="1.0" standalone="no"?><svg xmlns="http://www.w3.org/2000/svg" viewBox="0 0 1440 320"><path fill="#0099ff" fill-opacity="1" d="M0,32L30,53.3C60,75,120,117,180,122.7C240,128,300,96,360,96C420,96,480,128,540,154.7C600,181,660,203,720,202.7C780,203,840,181,900,160C960,139,1020,117,1080,106.7C1140,96,1200,96,1260,122.7C1320,149,1380,203,1410,229.3L1440,256L1440,320L1410,320C1380,320,1320,320,1260,320C1200,320,1140,320,1080,320C1020,320,960,320,900,320C840,320,780,320,720,320C660,320,600,320,540,320C480,320,420,320,360,320C300,320,240,320,180,320C120,320,60,320,30,320L0,320Z"></path></svg>